<mxfile host="app.diagrams.net" modified="2020-09-10T02:39:37.935Z" agent="5.0 (Windows NT 10.0; Win64; x64) AppleWebKit/537.36 (KHTML, like Gecko) Chrome/85.0.4183.83 Safari/537.36" etag="xLuDOs_MhjThu8NusHSn" version="13.6.9" type="github">
  <diagram id="C5RBs43oDa-KdzZeNtuy" name="Page-1">
    <mxGraphModel dx="2062" dy="1164" grid="1" gridSize="10" guides="1" tooltips="1" connect="1" arrows="1" fold="1" page="1" pageScale="1" pageWidth="827" pageHeight="1169" math="0" shadow="0">
      <root>
        <mxCell id="WIyWlLk6GJQsqaUBKTNV-0" />
        <mxCell id="WIyWlLk6GJQsqaUBKTNV-1" parent="WIyWlLk6GJQsqaUBKTNV-0" />
        <mxCell id="sGKf7VehJZ6SQPWaBCbI-23" style="edgeStyle=orthogonalEdgeStyle;rounded=0;orthogonalLoop=1;jettySize=auto;html=1;exitX=0.5;exitY=1;exitDx=0;exitDy=0;entryX=0.5;entryY=0;entryDx=0;entryDy=0;" edge="1" parent="WIyWlLk6GJQsqaUBKTNV-1" source="WIyWlLk6GJQsqaUBKTNV-3" target="QLPknpkBetDl3JihI6zV-10">
          <mxGeometry relative="1" as="geometry" />
        </mxCell>
        <mxCell id="WIyWlLk6GJQsqaUBKTNV-3" value="Module1 시작" style="rounded=1;whiteSpace=wrap;html=1;fontSize=12;glass=0;strokeWidth=1;shadow=0;" parent="WIyWlLk6GJQsqaUBKTNV-1" vertex="1">
          <mxGeometry x="384.63" y="45" width="129.25" height="50" as="geometry" />
        </mxCell>
        <mxCell id="GG3lIaApX8E2W6bswI5q-24" value="No" style="edgeStyle=orthogonalEdgeStyle;rounded=0;orthogonalLoop=1;jettySize=auto;html=1;exitX=1;exitY=0.5;exitDx=0;exitDy=0;entryX=0;entryY=0.5;entryDx=0;entryDy=0;" parent="WIyWlLk6GJQsqaUBKTNV-1" source="QLPknpkBetDl3JihI6zV-2" target="GG3lIaApX8E2W6bswI5q-23" edge="1">
          <mxGeometry relative="1" as="geometry" />
        </mxCell>
        <mxCell id="sGKf7VehJZ6SQPWaBCbI-0" value="Yes" style="edgeStyle=orthogonalEdgeStyle;rounded=0;orthogonalLoop=1;jettySize=auto;html=1;exitX=0.5;exitY=1;exitDx=0;exitDy=0;entryX=0.5;entryY=0;entryDx=0;entryDy=0;" edge="1" parent="WIyWlLk6GJQsqaUBKTNV-1" target="sGKf7VehJZ6SQPWaBCbI-2">
          <mxGeometry relative="1" as="geometry">
            <mxPoint x="449.25" y="644" as="sourcePoint" />
            <mxPoint x="449.25" y="700" as="targetPoint" />
          </mxGeometry>
        </mxCell>
        <mxCell id="QLPknpkBetDl3JihI6zV-2" value="상호작용된 도면이&lt;br&gt;목표도면과 일치하는가?" style="rhombus;whiteSpace=wrap;html=1;" parent="WIyWlLk6GJQsqaUBKTNV-1" vertex="1">
          <mxGeometry x="351.88" y="560" width="194.75" height="90" as="geometry" />
        </mxCell>
        <mxCell id="sGKf7VehJZ6SQPWaBCbI-24" style="edgeStyle=orthogonalEdgeStyle;rounded=0;orthogonalLoop=1;jettySize=auto;html=1;exitX=0.5;exitY=1;exitDx=0;exitDy=0;" edge="1" parent="WIyWlLk6GJQsqaUBKTNV-1" source="QLPknpkBetDl3JihI6zV-10" target="QLPknpkBetDl3JihI6zV-11">
          <mxGeometry relative="1" as="geometry" />
        </mxCell>
        <mxCell id="QLPknpkBetDl3JihI6zV-10" value="Settings 값 확인" style="shape=hexagon;perimeter=hexagonPerimeter2;whiteSpace=wrap;html=1;fixedSize=1;" parent="WIyWlLk6GJQsqaUBKTNV-1" vertex="1">
          <mxGeometry x="384.63" y="115" width="129.25" height="50" as="geometry" />
        </mxCell>
        <mxCell id="sGKf7VehJZ6SQPWaBCbI-25" style="edgeStyle=orthogonalEdgeStyle;rounded=0;orthogonalLoop=1;jettySize=auto;html=1;exitX=0.5;exitY=1;exitDx=0;exitDy=0;entryX=0.5;entryY=0;entryDx=0;entryDy=0;" edge="1" parent="WIyWlLk6GJQsqaUBKTNV-1" source="QLPknpkBetDl3JihI6zV-11" target="QLPknpkBetDl3JihI6zV-15">
          <mxGeometry relative="1" as="geometry" />
        </mxCell>
        <mxCell id="QLPknpkBetDl3JihI6zV-11" value="값에 따른 Text, Audio 선택" style="rounded=0;whiteSpace=wrap;html=1;" parent="WIyWlLk6GJQsqaUBKTNV-1" vertex="1">
          <mxGeometry x="389.25" y="185" width="120" height="60" as="geometry" />
        </mxCell>
        <mxCell id="GG3lIaApX8E2W6bswI5q-43" style="edgeStyle=orthogonalEdgeStyle;rounded=0;orthogonalLoop=1;jettySize=auto;html=1;exitX=0.5;exitY=1;exitDx=0;exitDy=0;entryX=0.5;entryY=0;entryDx=0;entryDy=0;endArrow=classic;endFill=1;" parent="WIyWlLk6GJQsqaUBKTNV-1" source="QLPknpkBetDl3JihI6zV-15" target="GG3lIaApX8E2W6bswI5q-4" edge="1">
          <mxGeometry relative="1" as="geometry" />
        </mxCell>
        <mxCell id="QLPknpkBetDl3JihI6zV-15" value="Module&amp;nbsp;&lt;br&gt;Text, Audio 출력" style="shape=parallelogram;perimeter=parallelogramPerimeter;whiteSpace=wrap;html=1;fixedSize=1;" parent="WIyWlLk6GJQsqaUBKTNV-1" vertex="1">
          <mxGeometry x="389.25" y="265" width="120" height="60" as="geometry" />
        </mxCell>
        <mxCell id="GG3lIaApX8E2W6bswI5q-19" value="상호작용 성공" style="edgeStyle=orthogonalEdgeStyle;rounded=0;orthogonalLoop=1;jettySize=auto;html=1;exitX=0.5;exitY=1;exitDx=0;exitDy=0;entryX=0.5;entryY=0;entryDx=0;entryDy=0;" parent="WIyWlLk6GJQsqaUBKTNV-1" source="QLPknpkBetDl3JihI6zV-56" target="QLPknpkBetDl3JihI6zV-2" edge="1">
          <mxGeometry relative="1" as="geometry" />
        </mxCell>
        <mxCell id="GG3lIaApX8E2W6bswI5q-49" value="상호작용 없음" style="edgeStyle=orthogonalEdgeStyle;rounded=0;orthogonalLoop=1;jettySize=auto;html=1;exitX=1;exitY=0.5;exitDx=0;exitDy=0;endArrow=classic;endFill=1;" parent="WIyWlLk6GJQsqaUBKTNV-1" source="QLPknpkBetDl3JihI6zV-56" edge="1">
          <mxGeometry x="-0.4986" relative="1" as="geometry">
            <mxPoint x="449.25" y="415" as="targetPoint" />
            <Array as="points">
              <mxPoint x="550.25" y="475" />
              <mxPoint x="550.25" y="415" />
            </Array>
            <mxPoint as="offset" />
          </mxGeometry>
        </mxCell>
        <mxCell id="QLPknpkBetDl3JihI6zV-56" value="Hand 상호작용 여부" style="rhombus;whiteSpace=wrap;html=1;fillColor=none;" parent="WIyWlLk6GJQsqaUBKTNV-1" vertex="1">
          <mxGeometry x="368.75" y="435" width="161" height="80" as="geometry" />
        </mxCell>
        <mxCell id="GG3lIaApX8E2W6bswI5q-12" style="edgeStyle=orthogonalEdgeStyle;rounded=0;orthogonalLoop=1;jettySize=auto;html=1;exitX=0.5;exitY=1;exitDx=0;exitDy=0;entryX=0.5;entryY=0;entryDx=0;entryDy=0;" parent="WIyWlLk6GJQsqaUBKTNV-1" source="GG3lIaApX8E2W6bswI5q-4" target="QLPknpkBetDl3JihI6zV-56" edge="1">
          <mxGeometry relative="1" as="geometry" />
        </mxCell>
        <mxCell id="GG3lIaApX8E2W6bswI5q-4" value="목표도면 = 정면도" style="shape=hexagon;perimeter=hexagonPerimeter2;whiteSpace=wrap;html=1;fixedSize=1;" parent="WIyWlLk6GJQsqaUBKTNV-1" vertex="1">
          <mxGeometry x="373.25" y="345" width="151.5" height="50" as="geometry" />
        </mxCell>
        <mxCell id="GG3lIaApX8E2W6bswI5q-50" style="edgeStyle=orthogonalEdgeStyle;rounded=0;orthogonalLoop=1;jettySize=auto;html=1;exitX=0.549;exitY=0.001;exitDx=0;exitDy=0;endArrow=classic;endFill=1;exitPerimeter=0;" parent="WIyWlLk6GJQsqaUBKTNV-1" source="GG3lIaApX8E2W6bswI5q-23" edge="1">
          <mxGeometry relative="1" as="geometry">
            <mxPoint x="449.25" y="415" as="targetPoint" />
            <mxPoint x="722.25" y="580" as="sourcePoint" />
            <Array as="points">
              <mxPoint x="735.25" y="580" />
              <mxPoint x="734.25" y="580" />
              <mxPoint x="734.25" y="415" />
            </Array>
          </mxGeometry>
        </mxCell>
        <mxCell id="GG3lIaApX8E2W6bswI5q-23" value="&quot;잘못선택하셨습니다&quot;&lt;br&gt;Text, Audio 출력" style="shape=parallelogram;perimeter=parallelogramPerimeter;whiteSpace=wrap;html=1;fixedSize=1;" parent="WIyWlLk6GJQsqaUBKTNV-1" vertex="1">
          <mxGeometry x="657" y="575" width="160" height="60" as="geometry" />
        </mxCell>
        <mxCell id="sGKf7VehJZ6SQPWaBCbI-14" value="No" style="edgeStyle=orthogonalEdgeStyle;rounded=0;orthogonalLoop=1;jettySize=auto;html=1;exitX=0.5;exitY=1;exitDx=0;exitDy=0;entryX=0.5;entryY=0;entryDx=0;entryDy=0;" edge="1" parent="WIyWlLk6GJQsqaUBKTNV-1" source="sGKf7VehJZ6SQPWaBCbI-2" target="sGKf7VehJZ6SQPWaBCbI-13">
          <mxGeometry relative="1" as="geometry" />
        </mxCell>
        <mxCell id="sGKf7VehJZ6SQPWaBCbI-39" style="edgeStyle=orthogonalEdgeStyle;rounded=0;orthogonalLoop=1;jettySize=auto;html=1;exitX=0;exitY=0.5;exitDx=0;exitDy=0;entryX=0.5;entryY=1;entryDx=0;entryDy=0;" edge="1" parent="WIyWlLk6GJQsqaUBKTNV-1" source="sGKf7VehJZ6SQPWaBCbI-2" target="sGKf7VehJZ6SQPWaBCbI-36">
          <mxGeometry relative="1" as="geometry" />
        </mxCell>
        <mxCell id="sGKf7VehJZ6SQPWaBCbI-40" value="Yes" style="edgeLabel;html=1;align=center;verticalAlign=middle;resizable=0;points=[];" vertex="1" connectable="0" parent="sGKf7VehJZ6SQPWaBCbI-39">
          <mxGeometry x="0.1252" y="-1" relative="1" as="geometry">
            <mxPoint x="28.75" y="1" as="offset" />
          </mxGeometry>
        </mxCell>
        <mxCell id="sGKf7VehJZ6SQPWaBCbI-2" value="목표도면이 정면도인가?" style="rhombus;whiteSpace=wrap;html=1;" vertex="1" parent="WIyWlLk6GJQsqaUBKTNV-1">
          <mxGeometry x="351.25" y="895" width="196" height="90" as="geometry" />
        </mxCell>
        <mxCell id="sGKf7VehJZ6SQPWaBCbI-10" style="edgeStyle=orthogonalEdgeStyle;rounded=0;orthogonalLoop=1;jettySize=auto;html=1;exitX=0.5;exitY=0;exitDx=0;exitDy=0;" edge="1" parent="WIyWlLk6GJQsqaUBKTNV-1" source="sGKf7VehJZ6SQPWaBCbI-5" target="sGKf7VehJZ6SQPWaBCbI-8">
          <mxGeometry relative="1" as="geometry" />
        </mxCell>
        <mxCell id="sGKf7VehJZ6SQPWaBCbI-5" value="목표도면 = 평면도 변경" style="shape=hexagon;perimeter=hexagonPerimeter2;whiteSpace=wrap;html=1;fixedSize=1;" vertex="1" parent="WIyWlLk6GJQsqaUBKTNV-1">
          <mxGeometry x="178.5" y="580" width="151.5" height="50" as="geometry" />
        </mxCell>
        <mxCell id="sGKf7VehJZ6SQPWaBCbI-11" style="edgeStyle=orthogonalEdgeStyle;rounded=0;orthogonalLoop=1;jettySize=auto;html=1;exitX=0.5;exitY=0;exitDx=0;exitDy=0;" edge="1" parent="WIyWlLk6GJQsqaUBKTNV-1" source="sGKf7VehJZ6SQPWaBCbI-8">
          <mxGeometry relative="1" as="geometry">
            <mxPoint x="449.25" y="415" as="targetPoint" />
            <Array as="points">
              <mxPoint x="254.25" y="415" />
            </Array>
          </mxGeometry>
        </mxCell>
        <mxCell id="sGKf7VehJZ6SQPWaBCbI-8" value="&quot;평면도를 집으세요.&quot;&lt;br&gt;Text, Audio 출력" style="shape=parallelogram;perimeter=parallelogramPerimeter;whiteSpace=wrap;html=1;fixedSize=1;" vertex="1" parent="WIyWlLk6GJQsqaUBKTNV-1">
          <mxGeometry x="174.25" y="445" width="160" height="60" as="geometry" />
        </mxCell>
        <mxCell id="sGKf7VehJZ6SQPWaBCbI-41" style="edgeStyle=orthogonalEdgeStyle;rounded=0;orthogonalLoop=1;jettySize=auto;html=1;exitX=0;exitY=0.5;exitDx=0;exitDy=0;" edge="1" parent="WIyWlLk6GJQsqaUBKTNV-1" source="sGKf7VehJZ6SQPWaBCbI-13" target="sGKf7VehJZ6SQPWaBCbI-44">
          <mxGeometry relative="1" as="geometry">
            <mxPoint x="140" y="1080" as="targetPoint" />
          </mxGeometry>
        </mxCell>
        <mxCell id="sGKf7VehJZ6SQPWaBCbI-42" value="Yes" style="edgeLabel;html=1;align=center;verticalAlign=middle;resizable=0;points=[];" vertex="1" connectable="0" parent="sGKf7VehJZ6SQPWaBCbI-41">
          <mxGeometry x="0.2584" y="1" relative="1" as="geometry">
            <mxPoint x="211" y="19.75" as="offset" />
          </mxGeometry>
        </mxCell>
        <mxCell id="sGKf7VehJZ6SQPWaBCbI-61" value="No" style="edgeStyle=orthogonalEdgeStyle;rounded=0;orthogonalLoop=1;jettySize=auto;html=1;exitX=1;exitY=0.5;exitDx=0;exitDy=0;entryX=0.5;entryY=1;entryDx=0;entryDy=0;" edge="1" parent="WIyWlLk6GJQsqaUBKTNV-1" source="sGKf7VehJZ6SQPWaBCbI-13" target="sGKf7VehJZ6SQPWaBCbI-52">
          <mxGeometry x="0.4334" y="35" relative="1" as="geometry">
            <mxPoint x="35" y="-35" as="offset" />
          </mxGeometry>
        </mxCell>
        <mxCell id="sGKf7VehJZ6SQPWaBCbI-13" value="목표도면이 평면도인가?" style="rhombus;whiteSpace=wrap;html=1;" vertex="1" parent="WIyWlLk6GJQsqaUBKTNV-1">
          <mxGeometry x="351.25" y="1035" width="196" height="90" as="geometry" />
        </mxCell>
        <mxCell id="sGKf7VehJZ6SQPWaBCbI-18" style="edgeStyle=orthogonalEdgeStyle;rounded=0;orthogonalLoop=1;jettySize=auto;html=1;exitX=0.5;exitY=0;exitDx=0;exitDy=0;entryX=0.5;entryY=1;entryDx=0;entryDy=0;" edge="1" parent="WIyWlLk6GJQsqaUBKTNV-1" source="sGKf7VehJZ6SQPWaBCbI-15" target="sGKf7VehJZ6SQPWaBCbI-17">
          <mxGeometry relative="1" as="geometry" />
        </mxCell>
        <mxCell id="sGKf7VehJZ6SQPWaBCbI-15" value="목표도면 = 단면도 변경" style="shape=hexagon;perimeter=hexagonPerimeter2;whiteSpace=wrap;html=1;fixedSize=1;" vertex="1" parent="WIyWlLk6GJQsqaUBKTNV-1">
          <mxGeometry x="14.25" y="575" width="151.5" height="50" as="geometry" />
        </mxCell>
        <mxCell id="sGKf7VehJZ6SQPWaBCbI-19" style="edgeStyle=orthogonalEdgeStyle;rounded=0;orthogonalLoop=1;jettySize=auto;html=1;exitX=0.5;exitY=0;exitDx=0;exitDy=0;" edge="1" parent="WIyWlLk6GJQsqaUBKTNV-1" source="sGKf7VehJZ6SQPWaBCbI-17">
          <mxGeometry relative="1" as="geometry">
            <mxPoint x="444.25" y="415" as="targetPoint" />
            <Array as="points">
              <mxPoint x="60.25" y="415" />
            </Array>
          </mxGeometry>
        </mxCell>
        <mxCell id="sGKf7VehJZ6SQPWaBCbI-17" value="&quot;단면도를 집으세요.&quot;&lt;br&gt;Text, Audio 출력" style="shape=parallelogram;perimeter=parallelogramPerimeter;whiteSpace=wrap;html=1;fixedSize=1;" vertex="1" parent="WIyWlLk6GJQsqaUBKTNV-1">
          <mxGeometry x="10" y="445" width="160" height="60" as="geometry" />
        </mxCell>
        <mxCell id="sGKf7VehJZ6SQPWaBCbI-21" value="Module1 끝" style="rounded=1;whiteSpace=wrap;html=1;fontSize=12;glass=0;strokeWidth=1;shadow=0;" vertex="1" parent="WIyWlLk6GJQsqaUBKTNV-1">
          <mxGeometry x="673.37" y="770" width="127.25" height="50" as="geometry" />
        </mxCell>
        <mxCell id="sGKf7VehJZ6SQPWaBCbI-47" style="edgeStyle=orthogonalEdgeStyle;rounded=0;orthogonalLoop=1;jettySize=auto;html=1;exitX=0.5;exitY=0;exitDx=0;exitDy=0;entryX=0.5;entryY=1;entryDx=0;entryDy=0;" edge="1" parent="WIyWlLk6GJQsqaUBKTNV-1" source="sGKf7VehJZ6SQPWaBCbI-35" target="sGKf7VehJZ6SQPWaBCbI-5">
          <mxGeometry relative="1" as="geometry" />
        </mxCell>
        <mxCell id="sGKf7VehJZ6SQPWaBCbI-35" value="정면도 PreviewAR 활성화" style="rounded=0;whiteSpace=wrap;html=1;" vertex="1" parent="WIyWlLk6GJQsqaUBKTNV-1">
          <mxGeometry x="178.5" y="705" width="151" height="50" as="geometry" />
        </mxCell>
        <mxCell id="sGKf7VehJZ6SQPWaBCbI-38" style="edgeStyle=orthogonalEdgeStyle;rounded=0;orthogonalLoop=1;jettySize=auto;html=1;exitX=0.5;exitY=0;exitDx=0;exitDy=0;" edge="1" parent="WIyWlLk6GJQsqaUBKTNV-1" source="sGKf7VehJZ6SQPWaBCbI-36" target="sGKf7VehJZ6SQPWaBCbI-35">
          <mxGeometry relative="1" as="geometry" />
        </mxCell>
        <mxCell id="sGKf7VehJZ6SQPWaBCbI-36" value="정면도면의 설명&lt;br&gt;Text, Audio 출력" style="shape=parallelogram;perimeter=parallelogramPerimeter;whiteSpace=wrap;html=1;fixedSize=1;" vertex="1" parent="WIyWlLk6GJQsqaUBKTNV-1">
          <mxGeometry x="186.37" y="835" width="135.75" height="60" as="geometry" />
        </mxCell>
        <mxCell id="sGKf7VehJZ6SQPWaBCbI-46" style="edgeStyle=orthogonalEdgeStyle;rounded=0;orthogonalLoop=1;jettySize=auto;html=1;exitX=0.5;exitY=0;exitDx=0;exitDy=0;entryX=0.5;entryY=1;entryDx=0;entryDy=0;" edge="1" parent="WIyWlLk6GJQsqaUBKTNV-1" source="sGKf7VehJZ6SQPWaBCbI-43" target="sGKf7VehJZ6SQPWaBCbI-15">
          <mxGeometry relative="1" as="geometry" />
        </mxCell>
        <mxCell id="sGKf7VehJZ6SQPWaBCbI-43" value="평면도 PreviewAR 활성화" style="rounded=0;whiteSpace=wrap;html=1;" vertex="1" parent="WIyWlLk6GJQsqaUBKTNV-1">
          <mxGeometry x="15" y="705" width="150" height="50" as="geometry" />
        </mxCell>
        <mxCell id="sGKf7VehJZ6SQPWaBCbI-45" style="edgeStyle=orthogonalEdgeStyle;rounded=0;orthogonalLoop=1;jettySize=auto;html=1;exitX=0.5;exitY=0;exitDx=0;exitDy=0;entryX=0.5;entryY=1;entryDx=0;entryDy=0;" edge="1" parent="WIyWlLk6GJQsqaUBKTNV-1" source="sGKf7VehJZ6SQPWaBCbI-44" target="sGKf7VehJZ6SQPWaBCbI-43">
          <mxGeometry relative="1" as="geometry" />
        </mxCell>
        <mxCell id="sGKf7VehJZ6SQPWaBCbI-44" value="평면도의 설명&lt;br&gt;Text, Audio 출력" style="shape=parallelogram;perimeter=parallelogramPerimeter;whiteSpace=wrap;html=1;fixedSize=1;" vertex="1" parent="WIyWlLk6GJQsqaUBKTNV-1">
          <mxGeometry x="22.120000000000005" y="835" width="135.75" height="60" as="geometry" />
        </mxCell>
        <mxCell id="sGKf7VehJZ6SQPWaBCbI-59" style="edgeStyle=orthogonalEdgeStyle;rounded=0;orthogonalLoop=1;jettySize=auto;html=1;exitX=0.5;exitY=0;exitDx=0;exitDy=0;entryX=0.5;entryY=1;entryDx=0;entryDy=0;" edge="1" parent="WIyWlLk6GJQsqaUBKTNV-1" source="sGKf7VehJZ6SQPWaBCbI-51" target="sGKf7VehJZ6SQPWaBCbI-21">
          <mxGeometry relative="1" as="geometry" />
        </mxCell>
        <mxCell id="sGKf7VehJZ6SQPWaBCbI-51" value="단면도 PreviewAR 활성화" style="rounded=0;whiteSpace=wrap;html=1;" vertex="1" parent="WIyWlLk6GJQsqaUBKTNV-1">
          <mxGeometry x="662" y="860" width="150" height="50" as="geometry" />
        </mxCell>
        <mxCell id="sGKf7VehJZ6SQPWaBCbI-54" style="edgeStyle=orthogonalEdgeStyle;rounded=0;orthogonalLoop=1;jettySize=auto;html=1;exitX=0.5;exitY=0;exitDx=0;exitDy=0;entryX=0.5;entryY=1;entryDx=0;entryDy=0;" edge="1" parent="WIyWlLk6GJQsqaUBKTNV-1" source="sGKf7VehJZ6SQPWaBCbI-52" target="sGKf7VehJZ6SQPWaBCbI-51">
          <mxGeometry relative="1" as="geometry" />
        </mxCell>
        <mxCell id="sGKf7VehJZ6SQPWaBCbI-52" value="단면도의 설명&lt;br&gt;Text, Audio 출력" style="shape=parallelogram;perimeter=parallelogramPerimeter;whiteSpace=wrap;html=1;fixedSize=1;" vertex="1" parent="WIyWlLk6GJQsqaUBKTNV-1">
          <mxGeometry x="669.12" y="945" width="135.75" height="60" as="geometry" />
        </mxCell>
      </root>
    </mxGraphModel>
  </diagram>
</mxfile>
